<svg width="1440" height="900" viewBox="0 0 1440 900" fill="none" xmlns="http://www.w3.org/2000/svg">
  <rect width="1440" height="900" fill="#020617"/>
  <rect x="32" y="32" width="280" height="836" rx="24" fill="#111827" stroke="#1F2937"/>
  <rect x="356" y="32" width="1052" height="96" rx="24" fill="#111827" stroke="#1F2937"/>
  <rect x="356" y="160" width="250" height="160" rx="24" fill="#0F172A" stroke="#1E293B"/>
  <rect x="624" y="160" width="250" height="160" rx="24" fill="#0F172A" stroke="#1E293B"/>
  <rect x="892" y="160" width="250" height="160" rx="24" fill="#0F172A" stroke="#1E293B"/>
  <rect x="1160" y="160" width="248" height="160" rx="24" fill="#0F172A" stroke="#1E293B"/>
  <rect x="356" y="352" width="660" height="260" rx="24" fill="#111827" stroke="#1F2937"/>
  <rect x="1034" y="352" width="374" height="260" rx="24" fill="#111827" stroke="#1F2937"/>
  <rect x="356" y="644" width="512" height="192" rx="24" fill="#111827" stroke="#1F2937"/>
  <rect x="886" y="644" width="522" height="192" rx="24" fill="#111827" stroke="#1F2937"/>
  <path d="M400 560C455 500 523 505 578 468C624 438 666 365 725 390C796 419 808 514 882 528C927 537 955 522 984 480" stroke="#38BDF8" stroke-width="8" stroke-linecap="round"/>
  <circle cx="1112" cy="474" r="74" fill="#0F172A"/>
  <path d="M1112 405A69 69 0 0 1 1172 509L1112 474V405Z" fill="#38BDF8"/>
  <path d="M1172 509A69 69 0 0 1 1075 535L1112 474L1172 509Z" fill="#4ADE80"/>
  <path d="M1075 535A69 69 0 0 1 1091 409L1112 474L1075 535Z" fill="#F59E0B"/>
  <rect x="68" y="72" width="118" height="28" rx="14" fill="#082F49"/>
  <rect x="68" y="126" width="208" height="22" rx="11" fill="#E2E8F0" fill-opacity="0.9"/>
  <rect x="68" y="160" width="190" height="16" rx="8" fill="#64748B"/>
  <rect x="68" y="250" width="208" height="56" rx="18" fill="#1E293B"/>
  <rect x="68" y="320" width="208" height="56" rx="18" fill="#1E293B"/>
  <rect x="68" y="390" width="208" height="56" rx="18" fill="#1E293B"/>
  <rect x="68" y="460" width="208" height="56" rx="18" fill="#1E293B"/>
  <rect x="68" y="530" width="208" height="56" rx="18" fill="#1E293B"/>
</svg>

